<?xml version="1.0" encoding="utf-8"?>
<!-- Generator: Adobe Illustrator 19.0.0, SVG Export Plug-In . SVG Version: 6.00 Build 0)  -->
<svg version="1.1" id="Layer_1" xmlns="http://www.w3.org/2000/svg" xmlns:xlink="http://www.w3.org/1999/xlink" x="0px" y="0px"
	 viewBox="0 0 500 500" style="enable-background:new 0 0 500 500;" xml:space="preserve">
<style type="text/css">
	.st0{fill:#FFFFFF;}
</style>
<g id="XMLID_2_">
	<path id="XMLID_27_" class="st0" d="M475.8,491.2c-32.6,6.7-60.2-6.4-80.8-38.5c-23.1-36.1-45.3-72.9-68-109.3
		c-22.4-35.9-44.6-72-67.8-107.3c-7.4-11.2-16.9-21.8-27.5-30.1c-20.3-15.7-44.3-14.8-64.3,1.4c-19.4,15.8-37.9,32.7-56.9,49.1
		c-18.4,15.9-39,26.2-63.8,20.5c-8-1.9-15-8.4-22.4-12.8c3.7-6.2,6.6-13.2,11.2-18.6c15.1-17.6,31-34.7,46.5-52
		c30.6-34.2,44.5-74,40.7-120c-1.1-13.6-0.2-27.4-0.2-42.3c46.2,0,94.2,0,138,0c35.7,77.9,70.3,154.8,106,231.1
		C402.2,338.9,439.1,414.8,475.8,491.2z"/>
	<path id="XMLID_25_" class="st0" d="M62.5,460.2c2.6-5.9,5.8-17.6,12.1-27.4C114,371.7,154,310.9,193.9,250.1
		c10.2-15.5,18.1-17.3,34-8.1c3.6,2.1,6.9,4.6,10.2,7.3c28.4,23.1,29.1,27.5,7.1,56.5c-44.9,59.5-89.9,118.9-134.9,178.4
		c-6.7,8.8-11.8,20.6-26.7,13.9C69.6,491.7,62.1,481.4,62.5,460.2z"/>
</g>
</svg>
